HIERARCHY
ROOT Hips
{
	OFFSET 0.000000 0.000000 0.000000 
	CHANNELS 6 Xposition Yposition Zposition Zrotation Yrotation Xrotation
	JOINT LeftUpLeg
	{
		OFFSET 1.363060 -1.794630 0.839290 
		CHANNELS 3 Zrotation Yrotation Xrotation
		JOINT LeftLeg
		{
			OFFSET 2.448110 -6.726130 0.000000 
			CHANNELS 3 Zrotation Yrotation Xrotation
			JOINT LeftFoot
			{
				OFFSET 2.562200 -7.039590 0.000000 
				CHANNELS 3 Zrotation Yrotation Xrotation
				JOINT LeftToeBase
				{
					OFFSET 0.157640 -0.433110 2.322550 
					CHANNELS 3 Zrotation Yrotation Xrotation
					End Site
					{
						OFFSET 0.000000 0.000000 0.000000 
					}
				}
			}
		}
	}
	JOINT RightUpLeg
	{
		OFFSET -1.305520 -1.794630 0.839290 
		CHANNELS 3 Zrotation Yrotation Xrotation
		JOINT RightLeg
		{
			OFFSET -2.542530 -6.985550 0.000000 
			CHANNELS 3 Zrotation Yrotation Xrotation
			JOINT RightFoot
			{
				OFFSET -2.568260 -7.056230 0.000000 
				CHANNELS 3 Zrotation Yrotation Xrotation
				JOINT RightToeBase
				{
					OFFSET -0.164730 -0.452590 2.363150 
					CHANNELS 3 Zrotation Yrotation Xrotation
					End Site
					{
						OFFSET 0.000000 0.000000 0.000000 
					}
				}
			}
		}
	}
	JOINT Spine
	{
		OFFSET 0.028270 2.035590 -0.193380 
		CHANNELS 3 Zrotation Yrotation Xrotation
		JOINT Spine1
		{
			OFFSET 0.056720 2.048850 -0.042750 
			CHANNELS 3 Zrotation Yrotation Xrotation
			JOINT Neck1
			{
				OFFSET -0.054170 1.746240 0.172020 
				CHANNELS 3 Zrotation Yrotation Xrotation
				JOINT Head
				{
					OFFSET 0.104070 1.761360 -0.123970 
					CHANNELS 3 Zrotation Yrotation Xrotation
					End Site
					{
						OFFSET 0.000000 0.000000 0.000000 
					}
				}
			}
			JOINT LeftArm
			{
				OFFSET 3.362410 1.200890 -0.311210 
				CHANNELS 3 Zrotation Yrotation Xrotation
				JOINT LeftForeArm
				{
					OFFSET 4.983000 -0.000000 -0.000000 
					CHANNELS 3 Zrotation Yrotation Xrotation
					JOINT LeftHand
					{
						OFFSET 3.483560 -0.000000 -0.000000 
						CHANNELS 3 Zrotation Yrotation Xrotation
						JOINT LeftHandIndex1
						{
							OFFSET 0.715260 -0.000000 -0.000000 
							CHANNELS 3 Zrotation Yrotation Xrotation
							End Site
							{
								OFFSET 0.000000 0.000000 0.000000 
							}
						}
					}
				}
			}
			JOINT RightArm
			{
				OFFSET -3.136600 1.374050 -0.404650 
				CHANNELS 3 Zrotation Yrotation Xrotation
				JOINT RightForeArm
				{
					OFFSET -5.241900 -0.000000 -0.000000 
					CHANNELS 3 Zrotation Yrotation Xrotation
					JOINT RightHand
					{
						OFFSET -3.444170 -0.000000 -0.000000 
						CHANNELS 3 Zrotation Yrotation Xrotation
						JOINT RightHandIndex1
						{
							OFFSET -0.622530 -0.000000 -0.000000 
							CHANNELS 3 Zrotation Yrotation Xrotation
							End Site
							{
								OFFSET 0.000000 0.000000 0.000000 
							}
						}
					}
				}
			}
		}
	}
}
MOTION
Frames: 12
Frame Time: 0.041667
15.137684 17.123289 -5.518023 16.578991 88.006848 13.839703 -23.598991 15.719442 17.741687 -0.849320 -0.733320 0.079879 0.013449 1.259018 -1.778381 0.323600 -3.656100 -10.111200 15.806083 16.757308 -27.108477 -1.023324 -10.705915 27.108948 1.862149 -10.984302 -10.778142 -0.017000 0.842700 -2.316000 1.080045 -1.788519 -1.151266 -1.212060 -1.248321 3.548621 4.964096 0.478532 10.866595 -1.279200 0.752500 5.510600 -74.587587 -11.696703 31.839021 17.383961 -27.708960 -5.706394 -1.255437 -1.003965 -15.548465 -7.125000 0.000000 0.000000 78.402430 -10.479341 20.400155 -8.384540 19.487353 -2.180977 1.052901 0.000817 7.979066 7.125000 0.000000 0.000000 
15.305408 17.117038 -5.507709 18.102496 88.059810 15.455824 -23.474630 15.952653 18.193432 -0.845852 -0.739821 0.087470 0.043014 1.109971 -1.836005 0.357700 -3.842000 -10.632700 15.432873 17.076000 -27.192517 -0.760049 -10.233263 25.673592 1.821792 -10.784310 -10.619068 -0.021900 0.955300 -2.625700 1.083067 -1.799117 -1.157505 -1.212605 -1.251205 3.550855 4.919396 0.493115 10.826799 -1.305200 0.753100 5.484300 -74.611423 -11.835870 32.000463 17.610774 -27.925098 -5.809138 -1.250993 -0.996788 -15.664343 -7.125000 0.000000 0.000000 78.511844 -10.583926 19.888021 -8.228429 19.287762 -2.136921 1.051250 -0.009171 8.293703 7.125000 0.000000 0.000000 
15.474591 17.109746 -5.497187 19.530279 88.125107 16.964995 -23.321001 16.174606 18.667089 -0.842972 -0.747009 0.094693 0.073974 0.948884 -1.843857 0.396400 -4.042500 -11.196200 15.118992 17.305085 -27.282694 -0.543046 -9.817828 24.434461 1.772978 -10.565408 -10.524065 -0.028000 1.080200 -2.969500 1.087739 -1.812987 -1.163876 -1.216248 -1.255028 3.547711 4.871509 0.507754 10.788152 -1.333100 0.753800 5.459700 -74.665908 -11.945635 32.133768 17.798870 -28.102547 -5.894152 -1.246861 -0.989032 -15.761790 -7.125000 0.000000 0.000000 78.616563 -10.683437 19.364744 -8.068492 19.081390 -2.092076 1.049880 -0.020102 8.638526 7.125000 0.000000 0.000000 
15.645232 17.101203 -5.486145 20.929219 88.202639 18.432373 -23.140098 16.385169 19.163181 -0.840469 -0.754842 0.101350 0.103287 0.790323 -1.797072 0.445300 -4.281500 -11.869900 14.873823 17.425586 -27.376266 -0.370318 -9.466655 23.404684 1.722277 -10.350538 -10.486065 -0.035200 1.211600 -3.331100 1.093831 -1.830579 -1.170279 -1.222972 -1.260046 3.544448 4.817997 0.515197 10.759938 -1.365200 0.751700 5.447900 -74.749884 -12.026928 32.238222 17.947974 -28.241577 -5.960766 -1.242770 -0.980849 -15.836338 -7.125000 0.000000 0.000000 78.713217 -10.770872 18.841024 -7.903894 18.866749 -2.046186 1.048890 -0.030464 9.001294 7.125000 0.000000 0.000000 
15.817644 17.091515 -5.474477 22.268057 88.291429 19.828253 -22.927110 16.586389 19.683875 -0.838535 -0.763537 0.107558 0.132984 0.622499 -1.688444 0.500500 -4.535600 -12.588500 14.707789 17.432366 -27.463662 -0.238420 -9.183723 22.589610 1.675017 -10.158677 -10.497594 -0.043100 1.339500 -3.683500 1.102506 -1.854368 -1.176169 -1.226422 -1.268179 3.543213 4.759516 0.522566 10.741246 -1.401300 0.750000 5.447000 -74.867222 -12.080880 32.298448 18.053859 -28.338615 -6.007384 -1.239176 -0.972466 -15.875686 -7.125000 0.000000 0.000000 78.795808 -10.846168 18.329278 -7.738819 18.649086 -2.000133 1.048207 -0.039129 9.369332 7.125000 0.000000 0.000000 
15.991932 17.080681 -5.461663 23.586669 88.388191 21.187948 -22.683892 16.780256 20.227059 -0.836953 -0.773005 0.113199 0.160806 0.457256 -1.515815 0.568800 -4.830100 -13.424700 14.617095 17.346755 -27.528767 -0.144029 -8.970082 21.986968 1.641588 -10.027217 -10.548089 -0.050100 1.444600 -3.972900 1.113410 -1.883197 -1.181183 -1.223067 -1.278554 3.542824 4.703665 0.532572 10.726063 -1.434900 0.749800 5.450000 -75.013259 -12.097837 32.324700 18.121993 -28.400871 -6.036616 -1.236051 -0.964049 -15.889347 -7.125000 0.000000 0.000000 78.862303 -10.904194 17.834198 -7.569762 18.423943 -1.953068 1.047880 -0.047218 9.739384 7.125000 0.000000 0.000000 
16.167990 17.069013 -5.447495 24.785115 88.486099 22.422673 -22.407817 16.972890 20.787077 -0.836110 -0.783460 0.118441 0.191104 0.272462 -1.268273 0.640000 -5.118300 -14.246300 14.595247 17.201768 -27.561507 -0.083353 -8.824331 21.586623 1.630534 -9.985923 -10.617333 -0.054300 1.503500 -4.135500 1.126218 -1.913804 -1.185318 -1.212389 -1.290021 3.542749 4.655624 0.551248 10.710757 -1.462300 0.754000 5.450700 -75.186417 -12.077411 32.315400 18.149931 -28.426828 -6.047547 -1.233728 -0.955803 -15.874402 -7.125000 0.000000 0.000000 78.915200 -10.948531 17.359898 -7.399399 18.195253 -1.905603 1.047344 -0.055097 10.113234 7.125000 0.000000 0.000000 
16.346132 17.056824 -5.431556 25.901569 88.583444 23.567510 -22.099663 17.164370 21.364634 -0.836095 -0.794968 0.123297 0.224430 0.065232 -0.943490 0.709900 -5.384900 -15.009600 14.627090 17.033214 -27.543044 -0.053088 -8.742457 21.374739 1.647211 -10.053005 -10.691153 -0.054300 1.503100 -4.134200 1.140657 -1.945183 -1.189172 -1.192962 -1.302019 3.539814 4.613790 0.575607 10.695027 -1.486100 0.761200 5.447100 -75.382511 -12.010419 32.278832 18.139505 -28.419878 -6.041346 -1.233068 -0.948392 -15.844720 -7.125000 0.000000 0.000000 78.956751 -10.985280 16.914103 -7.228840 17.964647 -1.858145 1.047135 -0.063062 10.485876 7.125000 0.000000 0.000000 
16.526253 17.044427 -5.413950 27.151685 88.671393 24.844399 -21.771641 17.353786 21.950641 -0.837190 -0.807296 0.127450 0.261221 -0.165965 -0.533386 0.771900 -5.610100 -15.657100 14.688148 16.875625 -27.468202 -0.050117 -8.718506 21.332615 1.695362 -10.239954 -10.749690 -0.050500 1.450600 -3.989700 1.155380 -1.975392 -1.193795 -1.164685 -1.313113 3.531175 4.579258 0.606501 10.676468 -1.506500 0.772200 5.436100 -75.594598 -11.893465 32.225594 18.090553 -28.380454 -6.018128 -1.234235 -0.942162 -15.813218 -7.125000 0.000000 0.000000 78.994294 -11.016366 16.482249 -7.056530 17.729593 -1.810247 1.046661 -0.071585 10.877154 7.125000 0.000000 0.000000 
16.708666 17.031926 -5.394261 28.499555 88.752799 26.217202 -21.420751 17.539150 22.545570 -0.839145 -0.820516 0.130858 0.298624 -0.405551 -0.035376 0.829100 -5.809100 -16.231600 14.769133 16.761064 -27.325206 -0.071264 -8.745897 21.440924 1.769777 -10.525998 -10.790866 -0.043200 1.342000 -3.690400 1.171246 -2.007480 -1.200085 -1.126606 -1.325200 3.516912 4.544101 0.641235 10.662450 -1.530500 0.785900 5.426200 -75.821005 -11.722075 32.156933 18.005258 -28.311163 -5.979093 -1.237682 -0.937629 -15.789093 -7.125000 0.000000 0.000000 79.024218 -11.041202 16.068652 -6.883994 17.491508 -1.762319 1.045974 -0.080708 11.280659 7.125000 0.000000 0.000000 
16.893684 17.019529 -5.372488 29.901005 88.835395 27.640811 -21.043348 17.714426 23.148314 -0.841761 -0.834723 0.133418 0.333699 -0.636128 0.556021 0.885200 -5.997600 -16.777500 14.872145 16.691899 -27.112370 -0.113442 -8.817431 21.678970 1.860424 -10.871661 -10.813166 -0.033600 1.183700 -3.254300 1.188662 -2.042125 -1.208107 -1.079684 -1.338672 3.497692 4.508651 0.677288 10.652768 -1.557300 0.801100 5.415900 -76.060428 -11.496718 32.080621 17.880734 -28.208496 -5.922376 -1.242384 -0.933626 -15.770085 -7.125000 0.000000 0.000000 79.052481 -11.069705 15.662937 -6.715623 17.256489 -1.715718 1.044851 -0.090126 11.697437 7.125000 0.000000 0.000000 
17.081722 17.006924 -5.348840 31.448127 88.921185 29.207077 -20.643746 17.876523 23.755416 -0.844411 -0.849594 0.134723 0.359481 -0.816726 1.243524 0.951200 -6.211100 -17.398000 15.000061 16.660623 -26.832884 -0.173815 -8.925678 22.028432 1.952577 -11.222273 -10.821707 -0.023300 0.986300 -2.711000 1.207011 -2.078927 -1.218326 -1.027317 -1.352775 3.471103 4.476116 0.714589 10.646288 -1.583700 0.817900 5.403600 -76.309690 -11.210268 32.005474 17.722352 -28.077911 -5.850394 -1.247530 -0.930444 -15.758410 -7.125000 0.000000 0.000000 79.081856 -11.104525 15.256336 -6.552413 17.026626 -1.670852 1.043415 -0.099145 12.125482 7.125000 0.000000 0.000000 
